<svg width="60" height="60" viewBox="0 0 60 60" fill="none" xmlns="http://www.w3.org/2000/svg">
<path opacity="0.6" d="M30 60C13.4315 60 1.17422e-06 46.5685 2.62268e-06 30C4.07115e-06 13.4315 13.4315 -4.07115e-06 30 -2.62268e-06C46.5685 -1.17422e-06 60 13.4315 60 30C60 46.5685 46.5685 60 30 60ZM23.6572 37.0713C24.0478 37.4615 24.6809 37.4617 25.0713 37.0713C25.4617 36.6809 25.4615 36.0478 25.0713 35.6572L20.4141 31L43 31L43 29L20.4141 29L25.0713 24.3428C25.4615 23.9522 25.4617 23.3191 25.0713 22.9287C24.6809 22.5383 24.0478 22.5385 23.6572 22.9287L17.293 29.293C16.9024 29.6835 16.9024 30.3165 17.293 30.707L23.6572 37.0713Z" fill="#A07747"/>
</svg>
