<svg width="60" height="60" viewBox="0 0 60 60" fill="none" xmlns="http://www.w3.org/2000/svg">
<path opacity="0.6" d="M30 0C46.5685 0 60 13.4315 60 30C60 46.5685 46.5685 60 30 60C13.4315 60 0 46.5685 0 30C0 13.4315 13.4315 0 30 0ZM36.3428 22.9287C35.9522 22.5385 35.3191 22.5383 34.9287 22.9287C34.5383 23.3191 34.5385 23.9522 34.9287 24.3428L39.5859 29H17V31H39.5859L34.9287 35.6572C34.5385 36.0478 34.5383 36.6809 34.9287 37.0713C35.3191 37.4617 35.9522 37.4615 36.3428 37.0713L42.707 30.707C43.0976 30.3165 43.0976 29.6835 42.707 29.293L36.3428 22.9287Z" fill="#A07747"/>
</svg>
