<svg width="275" height="42" viewBox="0 0 275 42" fill="none" xmlns="http://www.w3.org/2000/svg">
<path d="M71.1913 31.1613V14.551H64.6675V12.1935H80.4062V14.551H73.8824V31.1613H71.1913Z" fill="#D7C9AE"/>
<path d="M96.584 31.3781C95.1342 31.3781 93.7841 31.1342 92.5337 30.6465C91.3015 30.1587 90.2323 29.4813 89.3262 28.6142C88.4201 27.729 87.7134 26.6994 87.2059 25.5252C86.6985 24.351 86.4448 23.0684 86.4448 21.6774C86.4448 20.2865 86.6985 19.0039 87.2059 17.8297C87.7134 16.6555 88.4201 15.6348 89.3262 14.7677C90.2323 13.8826 91.3015 13.1961 92.5337 12.7084C93.766 12.2206 95.1161 11.9768 96.584 11.9768C98.0337 11.9768 99.3656 12.2206 100.58 12.7084C101.812 13.1781 102.881 13.8555 103.787 14.7406C104.712 15.6077 105.418 16.6284 105.908 17.8026C106.415 18.9768 106.669 20.2684 106.669 21.6774C106.669 23.0865 106.415 24.3781 105.908 25.5523C105.418 26.7265 104.712 27.7561 103.787 28.6413C102.881 29.5084 101.812 30.1858 100.58 30.6735C99.3656 31.1432 98.0337 31.3781 96.584 31.3781ZM96.584 28.9665C97.635 28.9665 98.6045 28.7858 99.4925 28.4245C100.399 28.0632 101.178 27.5574 101.83 26.9071C102.501 26.2387 103.017 25.4619 103.38 24.5768C103.76 23.6916 103.95 22.7252 103.95 21.6774C103.95 20.6297 103.76 19.6632 103.38 18.7781C103.017 17.8929 102.501 17.1252 101.83 16.4748C101.178 15.8064 100.399 15.2916 99.4925 14.9303C98.6045 14.569 97.635 14.3884 96.584 14.3884C95.5148 14.3884 94.5271 14.569 93.6211 14.9303C92.7331 15.2916 91.9538 15.8064 91.2833 16.4748C90.6128 17.1252 90.0873 17.8929 89.7067 18.7781C89.3443 19.6632 89.1631 20.6297 89.1631 21.6774C89.1631 22.7252 89.3443 23.6916 89.7067 24.5768C90.0873 25.4619 90.6128 26.2387 91.2833 26.9071C91.9538 27.5574 92.7331 28.0632 93.6211 28.4245C94.5271 28.7858 95.5148 28.9665 96.584 28.9665Z" fill="#D7C9AE"/>
<path d="M115.716 31.1613V12.1935H117.945L130.531 27.7742H129.362V12.1935H132.08V31.1613H129.851L117.266 15.5806H118.435V31.1613H115.716Z" fill="#D7C9AE"/>
<path d="M145.142 20.3768H154.928V22.68H145.142V20.3768ZM145.387 28.8039H156.477V31.1613H142.669V12.1935H156.097V14.551H145.387V28.8039Z" fill="#D7C9AE"/>
<path d="M174.253 31.3781C172.804 31.3781 171.463 31.1432 170.23 30.6735C169.016 30.1858 167.956 29.5084 167.05 28.6413C166.162 27.7561 165.464 26.7265 164.957 25.5523C164.449 24.3781 164.196 23.0865 164.196 21.6774C164.196 20.2684 164.449 18.9768 164.957 17.8026C165.464 16.6284 166.171 15.6077 167.077 14.7406C167.983 13.8555 169.043 13.1781 170.257 12.7084C171.49 12.2206 172.831 11.9768 174.28 11.9768C175.748 11.9768 177.098 12.2297 178.331 12.7355C179.581 13.2232 180.641 13.9548 181.511 14.9303L179.744 16.6374C179.019 15.8787 178.204 15.3187 177.298 14.9574C176.392 14.5781 175.422 14.3884 174.389 14.3884C173.32 14.3884 172.323 14.569 171.399 14.9303C170.493 15.2916 169.705 15.7974 169.034 16.4477C168.364 17.0981 167.838 17.8748 167.458 18.7781C167.095 19.6632 166.914 20.6297 166.914 21.6774C166.914 22.7252 167.095 23.7006 167.458 24.6039C167.838 25.489 168.364 26.2568 169.034 26.9071C169.705 27.5574 170.493 28.0632 171.399 28.4245C172.323 28.7858 173.32 28.9665 174.389 28.9665C175.422 28.9665 176.392 28.7858 177.298 28.4245C178.204 28.0452 179.019 27.4671 179.744 26.6903L181.511 28.3974C180.641 29.3729 179.581 30.1136 178.331 30.6194C177.098 31.1252 175.739 31.3781 174.253 31.3781Z" fill="#D7C9AE"/>
<path d="M190.282 31.1613V12.1935H197.703C199.37 12.1935 200.792 12.4555 201.97 12.9794C203.148 13.5032 204.054 14.2619 204.688 15.2555C205.323 16.249 205.64 17.4323 205.64 18.8052C205.64 20.1781 205.323 21.3613 204.688 22.3548C204.054 23.3303 203.148 24.08 201.97 24.6039C200.792 25.1277 199.37 25.3897 197.703 25.3897H191.777L193 24.1432V31.1613H190.282ZM203.003 31.1613L198.165 24.2787H201.073L205.966 31.1613H203.003ZM193 24.4142L191.777 23.0865H197.621C199.361 23.0865 200.674 22.7161 201.562 21.9755C202.469 21.2168 202.922 20.16 202.922 18.8052C202.922 17.4503 202.469 16.4026 201.562 15.6619C200.674 14.9213 199.361 14.551 197.621 14.551H191.777L193 13.1961V24.4142Z" fill="#D7C9AE"/>
<path d="M212.043 31.1613L220.66 12.1935H223.351L231.995 31.1613H229.141L221.448 13.711H222.536L214.843 31.1613H212.043ZM215.713 26.4194L216.447 24.2516H227.157L227.945 26.4194H215.713Z" fill="#D7C9AE"/>
<path d="M242.173 21.1626H251.986V23.4929H242.173V21.1626ZM242.445 31.1613H239.726V12.1935H253.155V14.551H242.445V31.1613Z" fill="#D7C9AE"/>
<path d="M265.785 31.1613V14.551H259.261V12.1935H275V14.551H268.476V31.1613H265.785Z" fill="#D7C9AE"/>
<path d="M22.8219 0C23.7914 0 24.5771 0.783383 24.5772 1.74978V40.2496C24.5772 41.2161 23.7914 42 22.8219 42C21.8524 41.9999 21.0665 41.216 21.0665 40.2496V1.74978C21.0667 0.783421 21.8524 6.16165e-05 22.8219 0Z" fill="#D7C9AE"/>
<path d="M12.2886 6.99978C13.2582 6.99978 14.0446 7.78373 14.0446 8.75022V33.2498C14.0446 34.2163 13.2582 34.9996 12.2886 34.9996C11.3191 34.9995 10.5333 34.2162 10.5333 33.2498V8.75022C10.5333 7.78378 11.3191 6.99986 12.2886 6.99978Z" fill="#D7C9AE"/>
<path d="M33.3551 6.99978C34.3247 6.99978 35.1105 7.78373 35.1105 8.75022V33.2498C35.1105 34.2163 34.3247 34.9996 33.3551 34.9996C32.3856 34.9995 31.5998 34.2163 31.5998 33.2498V8.75022C31.5998 7.78374 32.3856 6.99981 33.3551 6.99978Z" fill="#D7C9AE"/>
<path d="M1.75532 14.0002C2.72488 14.0002 3.51131 14.7835 3.51131 15.75V26.25C3.51123 27.2164 2.72483 27.9998 1.75532 27.9998C0.785914 27.9997 7.8508e-05 27.2164 0 26.25V15.75C0 14.7836 0.785866 14.0003 1.75532 14.0002Z" fill="#D7C9AE"/>
<path d="M43.8884 14.0002C44.858 14.0002 45.6437 14.7835 45.6437 15.75V26.25C45.6437 27.2164 44.8579 27.9998 43.8884 27.9998C42.9189 27.9998 42.1332 27.2164 42.1331 26.25V15.75C42.1331 14.7835 42.9189 14.0002 43.8884 14.0002Z" fill="#D7C9AE"/>
</svg>
